<?xml version="1.0" encoding="UTF-8" standalone="no"?>
<!DOCTYPE svg PUBLIC "-//W3C//DTD SVG 1.1//EN"
 "http://www.w3.org/Graphics/SVG/1.1/DTD/svg11.dtd">
<!-- Generated by graphviz version 2.38.0 (20140413.2041)
 -->
<!-- Title: Perl Pages: 1 -->
<svg width="664pt" height="664pt"
 viewBox="0.00 0.00 664.32 664.00" xmlns="http://www.w3.org/2000/svg" xmlns:xlink="http://www.w3.org/1999/xlink">
<g id="graph0" class="graph" transform="scale(1 1) rotate(0) translate(4 660)">
<title>Perl</title>
<polygon fill="white" stroke="none" points="-4,4 -4,-660 660.323,-660 660.323,4 -4,4"/>
<!-- SGEMMX -->
<g id="node1" class="node"><title>SGEMMX</title>
<polygon fill="none" stroke="black" points="499.166,-503.602 421.288,-503.602 421.288,-462.398 499.166,-462.398 499.166,-503.602"/>
<text text-anchor="middle" x="460.227" y="-487.2" font-family="Times,serif" font-size="14.00">SGEMMX</text>
<text text-anchor="middle" x="460.227" y="-470.4" font-family="Times,serif" font-size="14.00">912</text>
</g>
<!-- SGEMMXZ -->
<g id="node2" class="node"><title>SGEMMXZ</title>
<polygon fill="none" stroke="black" points="639.597,-591 553.616,-591 553.616,-555 639.597,-555 639.597,-591"/>
<text text-anchor="middle" x="596.607" y="-568.8" font-family="Times,serif" font-size="14.00">SGEMMXZ</text>
</g>
<!-- SGEMMX&#45;&#45;SGEMMXZ -->
<g id="edge1" class="edge"><title>SGEMMX&#45;&#45;SGEMMXZ</title>
<path fill="none" stroke="black" d="M482.877,-503.668C497.398,-516.844 517.372,-533.69 536.891,-546 542.11,-549.292 547.797,-552.415 553.51,-555.291"/>
</g>
<!-- DGEMUL -->
<g id="node3" class="node"><title>DGEMUL</title>
<polygon fill="none" stroke="black" points="634.476,-537 558.737,-537 558.737,-501 634.476,-501 634.476,-537"/>
<text text-anchor="middle" x="596.607" y="-514.8" font-family="Times,serif" font-size="14.00">DGEMUL</text>
</g>
<!-- SGEMMX&#45;&#45;DGEMUL -->
<g id="edge2" class="edge"><title>SGEMMX&#45;&#45;DGEMUL</title>
<path fill="none" stroke="black" d="M499.017,-493.124C517.648,-498.115 540.036,-504.113 558.565,-509.076"/>
</g>
<!-- SGEMUL -->
<g id="node4" class="node"><title>SGEMUL</title>
<polygon fill="none" stroke="black" points="633.154,-483 560.06,-483 560.06,-447 633.154,-447 633.154,-483"/>
<text text-anchor="middle" x="596.607" y="-460.8" font-family="Times,serif" font-size="14.00">SGEMUL</text>
</g>
<!-- SGEMMX&#45;&#45;SGEMUL -->
<g id="edge3" class="edge"><title>SGEMMX&#45;&#45;SGEMUL</title>
<path fill="none" stroke="black" d="M499.017,-477.938C518.114,-475.38 541.157,-472.293 559.947,-469.777"/>
</g>
<!-- DVMGGM -->
<g id="node5" class="node"><title>DVMGGM</title>
<polygon fill="none" stroke="black" points="637.423,-429 555.79,-429 555.79,-393 637.423,-393 637.423,-429"/>
<text text-anchor="middle" x="596.607" y="-406.8" font-family="Times,serif" font-size="14.00">DVMGGM</text>
</g>
<!-- SGEMMX&#45;&#45;DVMGGM -->
<g id="edge4" class="edge"><title>SGEMMX&#45;&#45;DVMGGM</title>
<path fill="none" stroke="black" d="M494.318,-462.292C507.403,-454.376 522.684,-445.464 536.891,-438 542.949,-434.817 549.454,-431.617 555.849,-428.59"/>
</g>
<!-- MTOS_PACK -->
<g id="node6" class="node"><title>MTOS_PACK</title>
<polygon fill="none" stroke="black" points="646.326,-90 546.888,-90 546.888,-54 646.326,-54 646.326,-90"/>
<text text-anchor="middle" x="596.607" y="-67.8" font-family="Times,serif" font-size="14.00">MTOS_PACK</text>
</g>
<!-- MXMAOP -->
<g id="node7" class="node"><title>MXMAOP</title>
<polygon fill="none" stroke="black" points="349.335,-503.602 270.351,-503.602 270.351,-462.398 349.335,-462.398 349.335,-503.602"/>
<text text-anchor="middle" x="309.843" y="-487.2" font-family="Times,serif" font-size="14.00">MXMAOP</text>
<text text-anchor="middle" x="309.843" y="-470.4" font-family="Times,serif" font-size="14.00">126</text>
</g>
<!-- MXMAOP&#45;&#45;SGEMMX -->
<g id="edge5" class="edge"><title>MXMAOP&#45;&#45;SGEMMX</title>
<path fill="none" stroke="black" d="M349.442,-483C371.596,-483 399.3,-483 421.335,-483"/>
</g>
<!-- SITNU_SP_OPENMP -->
<g id="node8" class="node"><title>SITNU_SP_OPENMP</title>
<polygon fill="none" stroke="black" points="381.393,-285.602 238.292,-285.602 238.292,-244.398 381.393,-244.398 381.393,-285.602"/>
<text text-anchor="middle" x="309.843" y="-269.2" font-family="Times,serif" font-size="14.00">SITNU_SP_OPENMP</text>
<text text-anchor="middle" x="309.843" y="-252.4" font-family="Times,serif" font-size="14.00">170</text>
</g>
<!-- SPCIMPFSOLVE -->
<g id="node9" class="node"><title>SPCIMPFSOLVE</title>
<polygon fill="none" stroke="black" points="369.017,-187.602 250.669,-187.602 250.669,-146.398 369.017,-146.398 369.017,-187.602"/>
<text text-anchor="middle" x="309.843" y="-171.2" font-family="Times,serif" font-size="14.00">SPCIMPFSOLVE</text>
<text text-anchor="middle" x="309.843" y="-154.4" font-family="Times,serif" font-size="14.00">195</text>
</g>
<!-- TRSTOM -->
<g id="node10" class="node"><title>TRSTOM</title>
<polygon fill="none" stroke="black" points="496.503,-247.602 423.951,-247.602 423.951,-206.398 496.503,-206.398 496.503,-247.602"/>
<text text-anchor="middle" x="460.227" y="-231.2" font-family="Times,serif" font-size="14.00">TRSTOM</text>
<text text-anchor="middle" x="460.227" y="-214.4" font-family="Times,serif" font-size="14.00">931</text>
</g>
<!-- SPCIMPFSOLVE&#45;&#45;TRSTOM -->
<g id="edge6" class="edge"><title>SPCIMPFSOLVE&#45;&#45;TRSTOM</title>
<path fill="none" stroke="black" d="M361.908,-187.649C382.196,-195.852 405.047,-205.092 423.505,-212.556"/>
</g>
<!-- SIMPLICO -->
<g id="node11" class="node"><title>SIMPLICO</title>
<polygon fill="none" stroke="black" points="501.055,-187.602 419.4,-187.602 419.4,-146.398 501.055,-146.398 501.055,-187.602"/>
<text text-anchor="middle" x="460.227" y="-171.2" font-family="Times,serif" font-size="14.00">SIMPLICO</text>
<text text-anchor="middle" x="460.227" y="-154.4" font-family="Times,serif" font-size="14.00">253</text>
</g>
<!-- SPCIMPFSOLVE&#45;&#45;SIMPLICO -->
<g id="edge7" class="edge"><title>SPCIMPFSOLVE&#45;&#45;SIMPLICO</title>
<path fill="none" stroke="black" d="M369.062,-167C385.951,-167 403.998,-167 419.475,-167"/>
</g>
<!-- TRMTOS -->
<g id="node12" class="node"><title>TRMTOS</title>
<polygon fill="none" stroke="black" points="496.503,-127.602 423.951,-127.602 423.951,-86.3981 496.503,-86.3981 496.503,-127.602"/>
<text text-anchor="middle" x="460.227" y="-111.2" font-family="Times,serif" font-size="14.00">TRMTOS</text>
<text text-anchor="middle" x="460.227" y="-94.4" font-family="Times,serif" font-size="14.00">909</text>
</g>
<!-- SPCIMPFSOLVE&#45;&#45;TRMTOS -->
<g id="edge8" class="edge"><title>SPCIMPFSOLVE&#45;&#45;TRMTOS</title>
<path fill="none" stroke="black" d="M361.908,-146.351C382.196,-138.148 405.047,-128.908 423.505,-121.444"/>
</g>
<!-- STOM_COMM -->
<g id="node13" class="node"><title>STOM_COMM</title>
<polygon fill="none" stroke="black" points="649.826,-366 543.388,-366 543.388,-330 649.826,-330 649.826,-366"/>
<text text-anchor="middle" x="596.607" y="-343.8" font-family="Times,serif" font-size="14.00">STOM_COMM</text>
</g>
<!-- TRSTOM&#45;&#45;STOM_COMM -->
<g id="edge9" class="edge"><title>TRSTOM&#45;&#45;STOM_COMM</title>
<path fill="none" stroke="black" d="M473.762,-247.661C487.219,-268.433 510.287,-300.266 536.891,-321 541.05,-324.242 545.661,-327.203 550.418,-329.878"/>
</g>
<!-- SET2PE -->
<g id="node14" class="node"><title>SET2PE</title>
<polygon fill="none" stroke="black" points="628.83,-257.602 564.383,-257.602 564.383,-216.398 628.83,-216.398 628.83,-257.602"/>
<text text-anchor="middle" x="596.607" y="-241.2" font-family="Times,serif" font-size="14.00">SET2PE</text>
<text text-anchor="middle" x="596.607" y="-224.4" font-family="Times,serif" font-size="14.00">141</text>
</g>
<!-- TRSTOM&#45;&#45;SET2PE -->
<g id="edge10" class="edge"><title>TRSTOM&#45;&#45;SET2PE</title>
<path fill="none" stroke="black" d="M496.534,-229.627C517.53,-231.19 543.933,-233.155 564.201,-234.663"/>
</g>
<!-- STOM_PACK -->
<g id="node15" class="node"><title>STOM_PACK</title>
<polygon fill="none" stroke="black" points="646.326,-198 546.888,-198 546.888,-162 646.326,-162 646.326,-198"/>
<text text-anchor="middle" x="596.607" y="-175.8" font-family="Times,serif" font-size="14.00">STOM_PACK</text>
</g>
<!-- TRSTOM&#45;&#45;STOM_PACK -->
<g id="edge11" class="edge"><title>TRSTOM&#45;&#45;STOM_PACK</title>
<path fill="none" stroke="black" d="M496.534,-214.651C511.931,-209.266 530.236,-202.864 546.897,-197.037"/>
</g>
<!-- STOM_UNPACK -->
<g id="node16" class="node"><title>STOM_UNPACK</title>
<polygon fill="none" stroke="black" points="656.539,-144 536.674,-144 536.674,-108 656.539,-108 656.539,-144"/>
<text text-anchor="middle" x="596.607" y="-121.8" font-family="Times,serif" font-size="14.00">STOM_UNPACK</text>
</g>
<!-- TRSTOM&#45;&#45;STOM_UNPACK -->
<g id="edge12" class="edge"><title>TRSTOM&#45;&#45;STOM_UNPACK</title>
<path fill="none" stroke="black" d="M490.484,-206.142C494.099,-203.2 497.656,-200.113 500.891,-197 519.095,-179.478 516.9,-168.452 536.891,-153 541.063,-149.775 545.682,-146.824 550.444,-144.155"/>
</g>
<!-- TRMTOS&#45;&#45;MTOS_PACK -->
<g id="edge15" class="edge"><title>TRMTOS&#45;&#45;MTOS_PACK</title>
<path fill="none" stroke="black" d="M496.534,-97.8042C511.931,-93.7939 530.236,-89.0263 546.897,-84.6868"/>
</g>
<!-- TRMTOS&#45;&#45;SET2PE -->
<g id="edge14" class="edge"><title>TRMTOS&#45;&#45;SET2PE</title>
<path fill="none" stroke="black" d="M491.948,-127.949C495.162,-130.791 498.224,-133.828 500.891,-137 523.405,-163.777 512.12,-182.295 536.891,-207 544.59,-214.679 554.661,-220.791 564.283,-225.44"/>
</g>
<!-- MTOS_UNPACK -->
<g id="node17" class="node"><title>MTOS_UNPACK</title>
<polygon fill="none" stroke="black" points="656.539,-36 536.674,-36 536.674,-0 656.539,-0 656.539,-36"/>
<text text-anchor="middle" x="596.607" y="-13.8" font-family="Times,serif" font-size="14.00">MTOS_UNPACK</text>
</g>
<!-- TRMTOS&#45;&#45;MTOS_UNPACK -->
<g id="edge16" class="edge"><title>TRMTOS&#45;&#45;MTOS_UNPACK</title>
<path fill="none" stroke="black" d="M483.254,-86.3976C497.768,-73.4855 517.594,-57.0639 536.891,-45 541.933,-41.8476 547.404,-38.8433 552.91,-36.0608"/>
</g>
<!-- MTOS_COMM -->
<g id="node21" class="node"><title>MTOS_COMM</title>
<polygon fill="none" stroke="black" points="649.826,-312 543.388,-312 543.388,-276 649.826,-276 649.826,-312"/>
<text text-anchor="middle" x="596.607" y="-289.8" font-family="Times,serif" font-size="14.00">MTOS_COMM</text>
</g>
<!-- TRMTOS&#45;&#45;MTOS_COMM -->
<g id="edge13" class="edge"><title>TRMTOS&#45;&#45;MTOS_COMM</title>
<path fill="none" stroke="black" d="M493.004,-127.81C495.949,-130.641 498.659,-133.715 500.891,-137 534.578,-186.592 498.041,-221.339 536.891,-267 539.726,-270.333 543.06,-273.277 546.676,-275.873"/>
</g>
<!-- MXPTMA -->
<g id="node18" class="node"><title>MXPTMA</title>
<polygon fill="none" stroke="black" points="348.782,-345.602 270.904,-345.602 270.904,-304.398 348.782,-304.398 348.782,-345.602"/>
<text text-anchor="middle" x="309.843" y="-329.2" font-family="Times,serif" font-size="14.00">MXPTMA</text>
<text text-anchor="middle" x="309.843" y="-312.4" font-family="Times,serif" font-size="14.00">163</text>
</g>
<!-- MXTURE -->
<g id="node19" class="node"><title>MXTURE</title>
<polygon fill="none" stroke="black" points="497.827,-418.602 422.628,-418.602 422.628,-377.398 497.827,-377.398 497.827,-418.602"/>
<text text-anchor="middle" x="460.227" y="-402.2" font-family="Times,serif" font-size="14.00">MXTURE</text>
<text text-anchor="middle" x="460.227" y="-385.4" font-family="Times,serif" font-size="14.00">426</text>
</g>
<!-- SIGAM_SP_OPENMP -->
<g id="node20" class="node"><title>SIGAM_SP_OPENMP</title>
<polygon fill="none" stroke="black" points="383.785,-563.602 235.9,-563.602 235.9,-522.398 383.785,-522.398 383.785,-563.602"/>
<text text-anchor="middle" x="309.843" y="-547.2" font-family="Times,serif" font-size="14.00">SIGAM_SP_OPENMP</text>
<text text-anchor="middle" x="309.843" y="-530.4" font-family="Times,serif" font-size="14.00">163</text>
</g>
<!-- MXTURS -->
<g id="node22" class="node"><title>MXTURS</title>
<polygon fill="none" stroke="black" points="347.173,-443.602 272.513,-443.602 272.513,-402.398 347.173,-402.398 347.173,-443.602"/>
<text text-anchor="middle" x="309.843" y="-427.2" font-family="Times,serif" font-size="14.00">MXTURS</text>
<text text-anchor="middle" x="309.843" y="-410.4" font-family="Times,serif" font-size="14.00">114</text>
</g>
<!-- MXTURS&#45;&#45;MXTURE -->
<g id="edge17" class="edge"><title>MXTURS&#45;&#45;MXTURE</title>
<path fill="none" stroke="black" d="M347.142,-416.884C370.05,-413.025 399.547,-408.055 422.531,-404.183"/>
</g>
<!-- SPCSI -->
<g id="node23" class="node"><title>SPCSI</title>
<polygon fill="none" stroke="black" points="200.122,-418.602 146.122,-418.602 146.122,-377.398 200.122,-377.398 200.122,-418.602"/>
<text text-anchor="middle" x="173.122" y="-402.2" font-family="Times,serif" font-size="14.00">SPCSI</text>
<text text-anchor="middle" x="173.122" y="-385.4" font-family="Times,serif" font-size="14.00">410</text>
</g>
<!-- SPCSI&#45;&#45;MXMAOP -->
<g id="edge19" class="edge"><title>SPCSI&#45;&#45;MXMAOP</title>
<path fill="none" stroke="black" d="M193.954,-418.713C205.487,-429.92 220.746,-443.393 236.122,-453 246.662,-459.585 258.898,-465.28 270.291,-469.884"/>
</g>
<!-- SPCSI&#45;&#45;SITNU_SP_OPENMP -->
<g id="edge24" class="edge"><title>SPCSI&#45;&#45;SITNU_SP_OPENMP</title>
<path fill="none" stroke="black" d="M181.981,-377.135C191.58,-354.19 209.85,-317.587 236.122,-295 240.161,-291.528 244.657,-288.417 249.377,-285.639"/>
</g>
<!-- SPCSI&#45;&#45;SPCIMPFSOLVE -->
<g id="edge22" class="edge"><title>SPCSI&#45;&#45;SPCIMPFSOLVE</title>
<path fill="none" stroke="black" d="M178.773,-377.284C186.727,-344.876 205.157,-281.128 236.122,-235 248.261,-216.918 266.067,-200.162 281.021,-187.808"/>
</g>
<!-- SPCSI&#45;&#45;MXPTMA -->
<g id="edge23" class="edge"><title>SPCSI&#45;&#45;MXPTMA</title>
<path fill="none" stroke="black" d="M200.326,-381.128C211.246,-374.31 224.151,-366.527 236.122,-360 247.316,-353.896 259.741,-347.709 271.107,-342.269"/>
</g>
<!-- SPCSI&#45;&#45;MXTURE -->
<g id="edge21" class="edge"><title>SPCSI&#45;&#45;MXTURE</title>
<path fill="none" stroke="black" d="M200.34,-395.416C211.375,-394.45 224.361,-393.473 236.122,-393 301.599,-390.364 318.07,-390.838 383.564,-393 396.195,-393.417 409.993,-394.224 422.306,-395.071"/>
</g>
<!-- SPCSI&#45;&#45;SIGAM_SP_OPENMP -->
<g id="edge18" class="edge"><title>SPCSI&#45;&#45;SIGAM_SP_OPENMP</title>
<path fill="none" stroke="black" d="M180.562,-419.025C189.331,-444.44 207.318,-487.025 236.122,-513 239.976,-516.476 244.288,-519.58 248.838,-522.348"/>
</g>
<!-- SPCSI&#45;&#45;MXTURS -->
<g id="edge20" class="edge"><title>SPCSI&#45;&#45;MXTURS</title>
<path fill="none" stroke="black" d="M200.417,-402.88C221.016,-406.702 249.899,-412.062 272.676,-416.289"/>
</g>
<!-- SPCM_SIMPLE -->
<g id="node24" class="node"><title>SPCM_SIMPLE</title>
<polygon fill="none" stroke="black" points="110.183,-527.602 -0.0610677,-527.602 -0.0610677,-486.398 110.183,-486.398 110.183,-527.602"/>
<text text-anchor="middle" x="55.061" y="-511.2" font-family="Times,serif" font-size="14.00">SPCM_SIMPLE</text>
<text text-anchor="middle" x="55.061" y="-494.4" font-family="Times,serif" font-size="14.00">159</text>
</g>
<!-- SPCM_SIMPLE&#45;&#45;TRSTOM -->
<g id="edge28" class="edge"><title>SPCM_SIMPLE&#45;&#45;TRSTOM</title>
<path fill="none" stroke="black" d="M62.3055,-486.395C79.6651,-433.208 134.072,-291.53 236.122,-235 295.285,-202.227 377.454,-210.416 423.777,-218.951"/>
</g>
<!-- SPCM_SIMPLE&#45;&#45;TRMTOS -->
<g id="edge26" class="edge"><title>SPCM_SIMPLE&#45;&#45;TRMTOS</title>
<path fill="none" stroke="black" d="M85.8669,-527.608C149.369,-568.768 299.083,-650.793 383.564,-573 455.08,-507.145 372.715,-222.186 419.564,-137 421.394,-133.671 423.768,-130.601 426.442,-127.798"/>
</g>
<!-- SPCM_SIMPLE&#45;&#45;SPCSI -->
<g id="edge27" class="edge"><title>SPCM_SIMPLE&#45;&#45;SPCSI</title>
<path fill="none" stroke="black" d="M78.1644,-486.241C98.816,-466.846 129.476,-438.052 150.101,-418.681"/>
</g>
<!-- PCRC -->
<g id="node25" class="node"><title>PCRC</title>
<polygon fill="none" stroke="black" points="200.122,-656 146.122,-656 146.122,-620 200.122,-620 200.122,-656"/>
<text text-anchor="middle" x="173.122" y="-633.8" font-family="Times,serif" font-size="14.00">PCRC</text>
</g>
<!-- SPCM_SIMPLE&#45;&#45;PCRC -->
<g id="edge25" class="edge"><title>SPCM_SIMPLE&#45;&#45;PCRC</title>
<path fill="none" stroke="black" d="M74.4512,-527.757C96.9504,-553.153 134.678,-595.736 156.06,-619.871"/>
</g>
</g>
</svg>
