<?xml version="1.0" encoding="UTF-8" standalone="no"?>
<!DOCTYPE svg PUBLIC "-//W3C//DTD SVG 1.1//EN"
 "http://www.w3.org/Graphics/SVG/1.1/DTD/svg11.dtd">
<!-- Generated by graphviz version 2.38.0 (20140413.2041)
 -->
<!-- Title: Perl Pages: 1 -->
<svg width="718pt" height="650pt"
 viewBox="0.00 0.00 718.12 650.00" xmlns="http://www.w3.org/2000/svg" xmlns:xlink="http://www.w3.org/1999/xlink">
<g id="graph0" class="graph" transform="scale(1 1) rotate(0) translate(4 646)">
<title>Perl</title>
<polygon fill="white" stroke="none" points="-4,4 -4,-646 714.119,-646 714.119,4 -4,4"/>
<!-- MXTURS -->
<g id="node1" class="node"><title>MXTURS</title>
<polygon fill="none" stroke="black" points="551.354,-425.602 476.693,-425.602 476.693,-384.398 551.354,-384.398 551.354,-425.602"/>
<text text-anchor="middle" x="514.024" y="-409.2" font-family="Times,serif" font-size="14.00">MXTURS</text>
<text text-anchor="middle" x="514.024" y="-392.4" font-family="Times,serif" font-size="14.00">114</text>
</g>
<!-- MXTURE -->
<g id="node2" class="node"><title>MXTURE</title>
<polygon fill="none" stroke="black" points="688.003,-425.602 612.804,-425.602 612.804,-384.398 688.003,-384.398 688.003,-425.602"/>
<text text-anchor="middle" x="650.403" y="-409.2" font-family="Times,serif" font-size="14.00">MXTURE</text>
<text text-anchor="middle" x="650.403" y="-392.4" font-family="Times,serif" font-size="14.00">426</text>
</g>
<!-- MXTURS&#45;&#45;MXTURE -->
<g id="edge1" class="edge"><title>MXTURS&#45;&#45;MXTURE</title>
<path fill="none" stroke="black" d="M551.389,-405C570.355,-405 593.504,-405 612.542,-405"/>
</g>
<!-- STOM_UNPACK -->
<g id="node3" class="node"><title>STOM_UNPACK</title>
<polygon fill="none" stroke="black" points="710.336,-144 590.47,-144 590.47,-108 710.336,-108 710.336,-144"/>
<text text-anchor="middle" x="650.403" y="-121.8" font-family="Times,serif" font-size="14.00">STOM_UNPACK</text>
</g>
<!-- SPCIMPFSOLVE -->
<g id="node4" class="node"><title>SPCIMPFSOLVE</title>
<polygon fill="none" stroke="black" points="422.813,-213.602 304.466,-213.602 304.466,-172.398 422.813,-172.398 422.813,-213.602"/>
<text text-anchor="middle" x="363.639" y="-197.2" font-family="Times,serif" font-size="14.00">SPCIMPFSOLVE</text>
<text text-anchor="middle" x="363.639" y="-180.4" font-family="Times,serif" font-size="14.00">195</text>
</g>
<!-- TRSTOM -->
<g id="node5" class="node"><title>TRSTOM</title>
<polygon fill="none" stroke="black" points="550.3,-270.602 477.748,-270.602 477.748,-229.398 550.3,-229.398 550.3,-270.602"/>
<text text-anchor="middle" x="514.024" y="-254.2" font-family="Times,serif" font-size="14.00">TRSTOM</text>
<text text-anchor="middle" x="514.024" y="-237.4" font-family="Times,serif" font-size="14.00">931</text>
</g>
<!-- SPCIMPFSOLVE&#45;&#45;TRSTOM -->
<g id="edge2" class="edge"><title>SPCIMPFSOLVE&#45;&#45;TRSTOM</title>
<path fill="none" stroke="black" d="M418.629,-213.74C438.185,-221.252 459.769,-229.543 477.355,-236.298"/>
</g>
<!-- SIMPLICO -->
<g id="node6" class="node"><title>SIMPLICO</title>
<polygon fill="none" stroke="black" points="554.851,-210.602 473.196,-210.602 473.196,-169.398 554.851,-169.398 554.851,-210.602"/>
<text text-anchor="middle" x="514.024" y="-194.2" font-family="Times,serif" font-size="14.00">SIMPLICO</text>
<text text-anchor="middle" x="514.024" y="-177.4" font-family="Times,serif" font-size="14.00">253</text>
</g>
<!-- SPCIMPFSOLVE&#45;&#45;SIMPLICO -->
<g id="edge3" class="edge"><title>SPCIMPFSOLVE&#45;&#45;SIMPLICO</title>
<path fill="none" stroke="black" d="M422.859,-191.823C439.747,-191.481 457.794,-191.117 473.272,-190.804"/>
</g>
<!-- TRMTOS -->
<g id="node7" class="node"><title>TRMTOS</title>
<polygon fill="none" stroke="black" points="550.3,-150.602 477.748,-150.602 477.748,-109.398 550.3,-109.398 550.3,-150.602"/>
<text text-anchor="middle" x="514.024" y="-134.2" font-family="Times,serif" font-size="14.00">TRMTOS</text>
<text text-anchor="middle" x="514.024" y="-117.4" font-family="Times,serif" font-size="14.00">909</text>
</g>
<!-- SPCIMPFSOLVE&#45;&#45;TRMTOS -->
<g id="edge4" class="edge"><title>SPCIMPFSOLVE&#45;&#45;TRMTOS</title>
<path fill="none" stroke="black" d="M413.226,-172.371C434.187,-163.472 458.257,-153.253 477.506,-145.08"/>
</g>
<!-- TRSTOM&#45;&#45;STOM_UNPACK -->
<g id="edge15" class="edge"><title>TRSTOM&#45;&#45;STOM_UNPACK</title>
<path fill="none" stroke="black" d="M545.285,-229.356C548.655,-226.422 551.879,-223.279 554.687,-220 576.674,-194.323 566.054,-176.15 590.687,-153 594.203,-149.696 598.194,-146.74 602.402,-144.109"/>
</g>
<!-- SET2PE -->
<g id="node9" class="node"><title>SET2PE</title>
<polygon fill="none" stroke="black" points="682.627,-257.602 618.18,-257.602 618.18,-216.398 682.627,-216.398 682.627,-257.602"/>
<text text-anchor="middle" x="650.403" y="-241.2" font-family="Times,serif" font-size="14.00">SET2PE</text>
<text text-anchor="middle" x="650.403" y="-224.4" font-family="Times,serif" font-size="14.00">141</text>
</g>
<!-- TRSTOM&#45;&#45;SET2PE -->
<g id="edge13" class="edge"><title>TRSTOM&#45;&#45;SET2PE</title>
<path fill="none" stroke="black" d="M550.33,-246.584C571.326,-244.553 597.729,-241.999 617.998,-240.038"/>
</g>
<!-- STOM_PACK -->
<g id="node17" class="node"><title>STOM_PACK</title>
<polygon fill="none" stroke="black" points="700.122,-198 600.684,-198 600.684,-162 700.122,-162 700.122,-198"/>
<text text-anchor="middle" x="650.403" y="-175.8" font-family="Times,serif" font-size="14.00">STOM_PACK</text>
</g>
<!-- TRSTOM&#45;&#45;STOM_PACK -->
<g id="edge14" class="edge"><title>TRSTOM&#45;&#45;STOM_PACK</title>
<path fill="none" stroke="black" d="M550.094,-229.239C562.757,-221.965 577.243,-213.895 590.687,-207 596.478,-204.03 602.658,-201.02 608.755,-198.141"/>
</g>
<!-- STOM_COMM -->
<g id="node21" class="node"><title>STOM_COMM</title>
<polygon fill="none" stroke="black" points="703.622,-366 597.184,-366 597.184,-330 703.622,-330 703.622,-366"/>
<text text-anchor="middle" x="650.403" y="-343.8" font-family="Times,serif" font-size="14.00">STOM_COMM</text>
</g>
<!-- TRSTOM&#45;&#45;STOM_COMM -->
<g id="edge12" class="edge"><title>TRSTOM&#45;&#45;STOM_COMM</title>
<path fill="none" stroke="black" d="M533.744,-270.882C548.211,-286.15 569.316,-306.619 590.687,-321 595.435,-324.195 600.621,-327.188 605.882,-329.933"/>
</g>
<!-- MTOS_COMM -->
<g id="node8" class="node"><title>MTOS_COMM</title>
<polygon fill="none" stroke="black" points="703.622,-312 597.184,-312 597.184,-276 703.622,-276 703.622,-312"/>
<text text-anchor="middle" x="650.403" y="-289.8" font-family="Times,serif" font-size="14.00">MTOS_COMM</text>
</g>
<!-- TRMTOS&#45;&#45;MTOS_COMM -->
<g id="edge5" class="edge"><title>TRMTOS&#45;&#45;MTOS_COMM</title>
<path fill="none" stroke="black" d="M546.622,-150.935C549.6,-153.743 552.367,-156.777 554.687,-160 583.999,-200.723 557.146,-229.684 590.687,-267 593.687,-270.338 597.183,-273.292 600.947,-275.9"/>
</g>
<!-- TRMTOS&#45;&#45;SET2PE -->
<g id="edge6" class="edge"><title>TRMTOS&#45;&#45;SET2PE</title>
<path fill="none" stroke="black" d="M544.376,-150.76C547.976,-153.718 551.503,-156.835 554.687,-160 573.349,-178.549 570.474,-190.155 590.687,-207 598.865,-213.816 608.851,-219.638 618.251,-224.29"/>
</g>
<!-- MTOS_PACK -->
<g id="node10" class="node"><title>MTOS_PACK</title>
<polygon fill="none" stroke="black" points="700.122,-90 600.684,-90 600.684,-54 700.122,-54 700.122,-90"/>
<text text-anchor="middle" x="650.403" y="-67.8" font-family="Times,serif" font-size="14.00">MTOS_PACK</text>
</g>
<!-- TRMTOS&#45;&#45;MTOS_PACK -->
<g id="edge7" class="edge"><title>TRMTOS&#45;&#45;MTOS_PACK</title>
<path fill="none" stroke="black" d="M550.33,-114.761C567.905,-107.176 589.267,-97.9554 607.65,-90.0212"/>
</g>
<!-- MTOS_UNPACK -->
<g id="node11" class="node"><title>MTOS_UNPACK</title>
<polygon fill="none" stroke="black" points="710.336,-36 590.47,-36 590.47,-0 710.336,-0 710.336,-36"/>
<text text-anchor="middle" x="650.403" y="-13.8" font-family="Times,serif" font-size="14.00">MTOS_UNPACK</text>
</g>
<!-- TRMTOS&#45;&#45;MTOS_UNPACK -->
<g id="edge8" class="edge"><title>TRMTOS&#45;&#45;MTOS_UNPACK</title>
<path fill="none" stroke="black" d="M545.014,-109.114C548.431,-106.221 551.74,-103.155 554.687,-100 574.631,-78.6514 568.553,-64.0683 590.687,-45 594.512,-41.7046 598.807,-38.7335 603.288,-36.0745"/>
</g>
<!-- SGEMMXZ -->
<g id="node12" class="node"><title>SGEMMXZ</title>
<polygon fill="none" stroke="black" points="693.393,-642 607.413,-642 607.413,-606 693.393,-606 693.393,-642"/>
<text text-anchor="middle" x="650.403" y="-619.8" font-family="Times,serif" font-size="14.00">SGEMMXZ</text>
</g>
<!-- SITNU_SP_OPENMP -->
<g id="node13" class="node"><title>SITNU_SP_OPENMP</title>
<polygon fill="none" stroke="black" points="435.19,-316.602 292.089,-316.602 292.089,-275.398 435.19,-275.398 435.19,-316.602"/>
<text text-anchor="middle" x="363.639" y="-300.2" font-family="Times,serif" font-size="14.00">SITNU_SP_OPENMP</text>
<text text-anchor="middle" x="363.639" y="-283.4" font-family="Times,serif" font-size="14.00">170</text>
</g>
<!-- SPCIMPFINIT -->
<g id="node14" class="node"><title>SPCIMPFINIT</title>
<polygon fill="none" stroke="black" points="250.574,-594.602 149.467,-594.602 149.467,-553.398 250.574,-553.398 250.574,-594.602"/>
<text text-anchor="middle" x="200.02" y="-578.2" font-family="Times,serif" font-size="14.00">SPCIMPFINIT</text>
<text text-anchor="middle" x="200.02" y="-561.4" font-family="Times,serif" font-size="14.00">175</text>
</g>
<!-- SPCSIDG_PART2 -->
<g id="node15" class="node"><title>SPCSIDG_PART2</title>
<polygon fill="none" stroke="black" points="425.477,-123.602 301.802,-123.602 301.802,-82.3981 425.477,-82.3981 425.477,-123.602"/>
<text text-anchor="middle" x="363.639" y="-107.2" font-family="Times,serif" font-size="14.00">SPCSIDG_PART2</text>
<text text-anchor="middle" x="363.639" y="-90.4" font-family="Times,serif" font-size="14.00">73</text>
</g>
<!-- MXPTMA -->
<g id="node16" class="node"><title>MXPTMA</title>
<polygon fill="none" stroke="black" points="552.963,-90.6019 475.085,-90.6019 475.085,-49.3981 552.963,-49.3981 552.963,-90.6019"/>
<text text-anchor="middle" x="514.024" y="-74.2" font-family="Times,serif" font-size="14.00">MXPTMA</text>
<text text-anchor="middle" x="514.024" y="-57.4" font-family="Times,serif" font-size="14.00">163</text>
</g>
<!-- SPCSIDG_PART2&#45;&#45;MXPTMA -->
<g id="edge9" class="edge"><title>SPCSIDG_PART2&#45;&#45;MXPTMA</title>
<path fill="none" stroke="black" d="M425.421,-89.4824C442.229,-85.7445 459.986,-81.7954 475.087,-78.4371"/>
</g>
<!-- SIGAM_SP_OPENMP -->
<g id="node18" class="node"><title>SIGAM_SP_OPENMP</title>
<polygon fill="none" stroke="black" points="437.582,-496.602 289.697,-496.602 289.697,-455.398 437.582,-455.398 437.582,-496.602"/>
<text text-anchor="middle" x="363.639" y="-480.2" font-family="Times,serif" font-size="14.00">SIGAM_SP_OPENMP</text>
<text text-anchor="middle" x="363.639" y="-463.4" font-family="Times,serif" font-size="14.00">163</text>
</g>
<!-- SPCSIDG_PART1 -->
<g id="node19" class="node"><title>SPCSIDG_PART1</title>
<polygon fill="none" stroke="black" points="425.477,-376.602 301.802,-376.602 301.802,-335.398 425.477,-335.398 425.477,-376.602"/>
<text text-anchor="middle" x="363.639" y="-360.2" font-family="Times,serif" font-size="14.00">SPCSIDG_PART1</text>
<text text-anchor="middle" x="363.639" y="-343.4" font-family="Times,serif" font-size="14.00">88</text>
</g>
<!-- SPCSIDG_PART1&#45;&#45;MXTURS -->
<g id="edge10" class="edge"><title>SPCSIDG_PART1&#45;&#45;MXTURS</title>
<path fill="none" stroke="black" d="M425.421,-376.072C442.869,-381.833 461.34,-387.933 476.801,-393.038"/>
</g>
<!-- SPCSIDG_PART1&#45;&#45;MXTURE -->
<g id="edge11" class="edge"><title>SPCSIDG_PART1&#45;&#45;MXTURE</title>
<path fill="none" stroke="black" d="M425.464,-358.867C463.002,-361.428 511.98,-366.201 554.687,-375 574.115,-379.003 595.202,-385.463 612.536,-391.366"/>
</g>
<!-- SPCIMPFPOST -->
<g id="node20" class="node"><title>SPCIMPFPOST</title>
<polygon fill="none" stroke="black" points="253.817,-218.602 146.224,-218.602 146.224,-177.398 253.817,-177.398 253.817,-218.602"/>
<text text-anchor="middle" x="200.02" y="-202.2" font-family="Times,serif" font-size="14.00">SPCIMPFPOST</text>
<text text-anchor="middle" x="200.02" y="-185.4" font-family="Times,serif" font-size="14.00">175</text>
</g>
<!-- DGEMUL -->
<g id="node22" class="node"><title>DGEMUL</title>
<polygon fill="none" stroke="black" points="688.273,-588 612.533,-588 612.533,-552 688.273,-552 688.273,-588"/>
<text text-anchor="middle" x="650.403" y="-565.8" font-family="Times,serif" font-size="14.00">DGEMUL</text>
</g>
<!-- MXMAOP -->
<g id="node23" class="node"><title>MXMAOP</title>
<polygon fill="none" stroke="black" points="403.131,-436.602 324.148,-436.602 324.148,-395.398 403.131,-395.398 403.131,-436.602"/>
<text text-anchor="middle" x="363.639" y="-420.2" font-family="Times,serif" font-size="14.00">MXMAOP</text>
<text text-anchor="middle" x="363.639" y="-403.4" font-family="Times,serif" font-size="14.00">126</text>
</g>
<!-- SGEMMX -->
<g id="node24" class="node"><title>SGEMMX</title>
<polygon fill="none" stroke="black" points="552.963,-536.602 475.085,-536.602 475.085,-495.398 552.963,-495.398 552.963,-536.602"/>
<text text-anchor="middle" x="514.024" y="-520.2" font-family="Times,serif" font-size="14.00">SGEMMX</text>
<text text-anchor="middle" x="514.024" y="-503.4" font-family="Times,serif" font-size="14.00">912</text>
</g>
<!-- MXMAOP&#45;&#45;SGEMMX -->
<g id="edge16" class="edge"><title>MXMAOP&#45;&#45;SGEMMX</title>
<path fill="none" stroke="black" d="M403.277,-428.979C414.674,-433.579 426.89,-439.305 437.36,-446 458.92,-459.786 480.003,-480.012 494.414,-495.182"/>
</g>
<!-- SGEMMX&#45;&#45;SGEMMXZ -->
<g id="edge28" class="edge"><title>SGEMMX&#45;&#45;SGEMMXZ</title>
<path fill="none" stroke="black" d="M530.597,-536.767C544.743,-554.535 566.97,-579.881 590.687,-597 595.782,-600.677 601.457,-604.038 607.215,-607.044"/>
</g>
<!-- SGEMMX&#45;&#45;DGEMUL -->
<g id="edge29" class="edge"><title>SGEMMX&#45;&#45;DGEMUL</title>
<path fill="none" stroke="black" d="M552.814,-531.186C571.445,-538.673 593.832,-547.669 612.361,-555.115"/>
</g>
<!-- DVMGGM -->
<g id="node25" class="node"><title>DVMGGM</title>
<polygon fill="none" stroke="black" points="691.219,-480 609.587,-480 609.587,-444 691.219,-444 691.219,-480"/>
<text text-anchor="middle" x="650.403" y="-457.8" font-family="Times,serif" font-size="14.00">DVMGGM</text>
</g>
<!-- SGEMMX&#45;&#45;DVMGGM -->
<g id="edge31" class="edge"><title>SGEMMX&#45;&#45;DVMGGM</title>
<path fill="none" stroke="black" d="M552.814,-500.814C570.513,-493.702 591.603,-485.227 609.554,-478.013"/>
</g>
<!-- SGEMUL -->
<g id="node28" class="node"><title>SGEMUL</title>
<polygon fill="none" stroke="black" points="686.95,-534 613.856,-534 613.856,-498 686.95,-498 686.95,-534"/>
<text text-anchor="middle" x="650.403" y="-511.8" font-family="Times,serif" font-size="14.00">SGEMUL</text>
</g>
<!-- SGEMMX&#45;&#45;SGEMUL -->
<g id="edge30" class="edge"><title>SGEMMX&#45;&#45;SGEMUL</title>
<path fill="none" stroke="black" d="M552.814,-516C571.91,-516 594.954,-516 613.743,-516"/>
</g>
<!-- SPCM_SIMPLE -->
<g id="node26" class="node"><title>SPCM_SIMPLE</title>
<polygon fill="none" stroke="black" points="110.183,-346.602 -0.0610677,-346.602 -0.0610677,-305.398 110.183,-305.398 110.183,-346.602"/>
<text text-anchor="middle" x="55.061" y="-330.2" font-family="Times,serif" font-size="14.00">SPCM_SIMPLE</text>
<text text-anchor="middle" x="55.061" y="-313.4" font-family="Times,serif" font-size="14.00">148</text>
</g>
<!-- SPCM_SIMPLE&#45;&#45;TRSTOM -->
<g id="edge20" class="edge"><title>SPCM_SIMPLE&#45;&#45;TRSTOM</title>
<path fill="none" stroke="black" d="M110.523,-306.733C122.193,-302.921 134.507,-299.135 146.122,-296 209.152,-278.989 225.259,-275.022 289.919,-266 355.878,-256.797 433.591,-252.744 477.707,-251.071"/>
</g>
<!-- SPCM_SIMPLE&#45;&#45;TRMTOS -->
<g id="edge18" class="edge"><title>SPCM_SIMPLE&#45;&#45;TRMTOS</title>
<path fill="none" stroke="black" d="M73.678,-346.945C131.85,-413.714 320.726,-611.129 437.36,-506 494.781,-454.244 435.39,-227.336 473.36,-160 475.226,-156.691 477.623,-153.633 480.312,-150.838"/>
</g>
<!-- SPCM_SIMPLE&#45;&#45;SPCIMPFINIT -->
<g id="edge17" class="edge"><title>SPCM_SIMPLE&#45;&#45;SPCIMPFINIT</title>
<path fill="none" stroke="black" d="M60.5924,-346.886C70.2954,-387.657 96.3539,-479.085 146.122,-539 150.484,-544.252 155.837,-549.013 161.443,-553.213"/>
</g>
<!-- SPCM_SIMPLE&#45;&#45;SPCIMPFPOST -->
<g id="edge21" class="edge"><title>SPCM_SIMPLE&#45;&#45;SPCIMPFPOST</title>
<path fill="none" stroke="black" d="M73.8701,-305.146C91.2517,-285.414 118.974,-255.543 146.122,-233 152.052,-228.076 158.695,-223.227 165.216,-218.782"/>
</g>
<!-- SPCSI -->
<g id="node27" class="node"><title>SPCSI</title>
<polygon fill="none" stroke="black" points="227.02,-346.602 173.02,-346.602 173.02,-305.398 227.02,-305.398 227.02,-346.602"/>
<text text-anchor="middle" x="200.02" y="-330.2" font-family="Times,serif" font-size="14.00">SPCSI</text>
<text text-anchor="middle" x="200.02" y="-313.4" font-family="Times,serif" font-size="14.00">348</text>
</g>
<!-- SPCM_SIMPLE&#45;&#45;SPCSI -->
<g id="edge19" class="edge"><title>SPCM_SIMPLE&#45;&#45;SPCSI</title>
<path fill="none" stroke="black" d="M110.516,-326C131.82,-326 155.268,-326 172.673,-326"/>
</g>
<!-- SPCSI&#45;&#45;SPCIMPFSOLVE -->
<g id="edge25" class="edge"><title>SPCSI&#45;&#45;SPCIMPFSOLVE</title>
<path fill="none" stroke="black" d="M226.273,-305.219C256.636,-280.233 307.28,-238.556 337.564,-213.635"/>
</g>
<!-- SPCSI&#45;&#45;SITNU_SP_OPENMP -->
<g id="edge27" class="edge"><title>SPCSI&#45;&#45;SITNU_SP_OPENMP</title>
<path fill="none" stroke="black" d="M227.347,-321.113C244.968,-317.842 269.058,-313.371 292.031,-309.106"/>
</g>
<!-- SPCSI&#45;&#45;SPCSIDG_PART2 -->
<g id="edge26" class="edge"><title>SPCSI&#45;&#45;SPCSIDG_PART2</title>
<path fill="none" stroke="black" d="M212.251,-305.164C235.588,-261.901 287.379,-166.076 289.919,-163 302.11,-148.232 318.348,-134.43 332.386,-123.796"/>
</g>
<!-- SPCSI&#45;&#45;SIGAM_SP_OPENMP -->
<g id="edge22" class="edge"><title>SPCSI&#45;&#45;SIGAM_SP_OPENMP</title>
<path fill="none" stroke="black" d="M211.84,-346.965C226.383,-373.314 254.545,-418.42 289.919,-446 294.334,-449.443 299.201,-452.553 304.261,-455.347"/>
</g>
<!-- SPCSI&#45;&#45;SPCSIDG_PART1 -->
<g id="edge24" class="edge"><title>SPCSI&#45;&#45;SPCSIDG_PART1</title>
<path fill="none" stroke="black" d="M227.347,-330.887C247.472,-334.623 276.037,-339.925 301.737,-344.695"/>
</g>
<!-- SPCSI&#45;&#45;MXMAOP -->
<g id="edge23" class="edge"><title>SPCSI&#45;&#45;MXMAOP</title>
<path fill="none" stroke="black" d="M227.367,-345.854C244.606,-358.317 267.933,-374.203 289.919,-386 300.629,-391.747 312.682,-397.124 323.849,-401.694"/>
</g>
</g>
</svg>
